<svg xmlns="http://www.w3.org/2000/svg" viewBox="0 0 64 64" role="img" aria-label="Pathfinding icon">
  <defs>
    <linearGradient id="bg" x1="0" y1="0" x2="1" y2="1">
      <stop offset="0" stop-color="#0f172a" />
      <stop offset="1" stop-color="#0b1221" />
    </linearGradient>
    <linearGradient id="path" x1="0" y1="0" x2="1" y2="1">
      <stop offset="0" stop-color="#7dd3fc" />
      <stop offset="1" stop-color="#38bdf8" />
    </linearGradient>
  </defs>
  <rect width="64" height="64" rx="12" fill="url(#bg)" />
  <g stroke="#1e293b" stroke-width="1" stroke-opacity="0.5">
    <path d="M10 18h44M10 30h44M10 42h44M10 54h44M18 10v44M30 10v44M42 10v44M54 10v44" />
  </g>
  <polyline points="12 52 24 36 32 44 44 24 56 18" fill="none" stroke="url(#path)" stroke-width="4" stroke-linecap="round" stroke-linejoin="round" />
  <g fill="#0ea5e9" stroke="#e0f2fe" stroke-width="1.5">
    <circle cx="24" cy="36" r="4.5" />
    <circle cx="32" cy="44" r="4.5" />
    <circle cx="44" cy="24" r="4.5" />
  </g>
  <circle cx="12" cy="52" r="6" fill="#22c55e" stroke="#dcfce7" stroke-width="2" />
  <circle cx="56" cy="18" r="6" fill="#f97316" stroke="#ffedd5" stroke-width="2" />
</svg>
